<?xml version="1.0" encoding="utf-8"?>
<!-- Generator: Adobe Illustrator 23.0.2, SVG Export Plug-In . SVG Version: 6.00 Build 0)  -->
<svg version="1.1" id="_x2022__logo_7c" xmlns="http://www.w3.org/2000/svg" xmlns:xlink="http://www.w3.org/1999/xlink" x="0px"
	 y="0px" viewBox="0 0 300 300" style="enable-background:new 0 0 300 300;" xml:space="preserve">
<style type="text/css">
	.st0{fill:#1D1D1B;}
	.st1{fill:#E50051;}
</style>
<g>
	<g>
		<g>
			<g>
				<g>
					<g>
						<g>
							<g>
								<path class="st0" d="M121.54,811.89h1.84l4.59,5.56l4.57-5.56h1.84v9.38h-2.13v-6.45l-4.19,5.32h-0.44l-4.23-5.17v6.3h-1.84
									V811.89z"/>
								<path class="st0" d="M141.94,819.52h6.52v-7.63h2.31v7.16c0,1.75-0.6,2.22-2.46,2.22h-6.21c-1.86,0-2.44-0.46-2.44-2.22
									v-7.16h2.29V819.52z"/>
								<path class="st0" d="M163.51,813.51c0.69,0,1.04,0.13,1.04,0.75v1.09c0,0.62-0.36,0.75-1.04,0.75h-5.21v-2.59H163.51z
									 M156.04,821.27h2.26v-3.55h2.15l3.93,3.55h3.28l-4.46-3.55h1.29c1.51,0,2.2-0.51,2.2-1.8v-2.22c0-1.31-0.69-1.82-2.2-1.82
									h-8.45V821.27z"/>
								<path class="st0" d="M171.56,811.89h10.06v1.66h-7.76v2.04h4.52v1.62h-4.52v2.31h7.87v1.75h-10.18V811.89z"/>
								<path class="st0" d="M189.83,816.46l-4.72-4.57h3.06l3.15,3.04l2.97-3.04h2.64l-4.28,4.3l5.28,5.08h-3.12l-3.59-3.5
									l-3.3,3.5h-2.71L189.83,816.46z"/>
							</g>
						</g>
					</g>
				</g>
				<path class="st1" d="M142.92,798.35c0.05-0.43-1.18-3.28-1.38-3.51c-0.21-0.22-0.96-0.26-1.24-0.61
					c-0.12-1.36-0.17-2.61-0.19-3.82c-0.06-5.52-0.44-12.73-0.73-15.43c-0.02-0.18-0.16-0.59-0.32-0.61
					c-0.16-0.02-0.37,0.37-0.63,0.75c-0.55,0.81-13.94,18.52-14.64,19.3c0.28-0.97,2.27-7.68,2.5-8.3c0.53-1.42,2.37-7.12,1.48-9.85
					c-16.24,14.37-39.57,47.7-40.89,86.46c1.09-0.68,2.1-2.28,2.33-7.75c1.22-29.2,21.28-62.02,36.63-73.95
					c0.14,1.92-2.45,9.1-3.74,14.52c-0.54,2.28,0.42,5.61,0.42,5.61c1.54,0.14,5.7-3.52,8-5.47l5.68-5.3
					c0.12,4.12,0.59,10.29,1.6,10.83c0.14,0.08,0.49,0.02,0.91-0.1C140.6,800.7,142.88,798.74,142.92,798.35z"/>
				<path class="st0" d="M201.66,814.43h-0.59v-2.09h-1.17v-0.45h2.93v0.45h-1.17V814.43z"/>
				<path class="st0" d="M203.55,811.89h0.48l1.2,1.54l1.17-1.54h0.47v2.54h-0.55v-1.57c0-0.05,0-0.14,0.02-0.27
					c-0.05,0.11-0.1,0.21-0.15,0.27l-0.96,1.27h-0.12l-0.96-1.28c-0.06-0.08-0.11-0.16-0.15-0.26c0.01,0.1,0.01,0.19,0.01,0.27v1.57
					h-0.48V811.89z"/>
			</g>
		</g>
	</g>
</g>
<g>
	<g>
		<g>
			<g>
				<g>
					<g>
						<g>
							<g>
								<path class="st0" d="M102.32,494.59h3.54l8.83,10.7l8.79-10.7H127v18.04h-4.09v-12.41l-8.06,10.23H114l-8.14-9.93v12.11
									h-3.54V494.59z"/>
								<path class="st0" d="M141.55,509.26h12.53v-14.67h4.44v13.77c0,3.37-1.15,4.26-4.73,4.26h-11.94
									c-3.58,0-4.69-0.89-4.69-4.26v-13.77h4.4V509.26z"/>
								<path class="st0" d="M183.04,497.7c1.32,0,2.01,0.26,2.01,1.45v2.09c0,1.19-0.68,1.45-2.01,1.45h-10.02v-4.99H183.04z
									 M168.67,512.62h4.35v-6.82h4.13l7.55,6.82h6.31l-8.57-6.82h2.47c2.9,0,4.22-0.98,4.22-3.45v-4.27c0-2.52-1.32-3.5-4.22-3.5
									h-16.25V512.62z"/>
								<path class="st0" d="M198.52,494.59h19.36v3.2h-14.92v3.92h8.7v3.11h-8.7v4.43h15.14v3.37h-19.57V494.59z"/>
								<path class="st0" d="M233.65,503.37l-9.08-8.79h5.89l6.06,5.84l5.71-5.84h5.08l-8.23,8.27l10.15,9.76h-6.01l-6.91-6.73
									l-6.35,6.73h-5.2L233.65,503.37z"/>
							</g>
						</g>
					</g>
				</g>
				<path class="st1" d="M143.43,468.54c0.09-0.83-2.26-6.31-2.66-6.75c-0.39-0.43-1.85-0.51-2.39-1.18
					c-0.22-2.62-0.33-5.02-0.36-7.34c-0.12-10.61-0.84-24.48-1.41-29.67c-0.04-0.35-0.31-1.14-0.62-1.17
					c-0.31-0.04-0.71,0.7-1.21,1.44c-1.05,1.55-26.81,35.62-28.16,37.12c0.54-1.87,4.37-14.77,4.81-15.96
					c1.02-2.73,4.56-13.69,2.84-18.94c-31.23,27.64-76.1,91.73-78.64,166.28c2.1-1.32,4.05-4.39,4.49-14.91
					c2.35-56.16,40.92-119.28,70.46-142.23c0.26,3.69-4.71,17.49-7.19,27.92c-1.04,4.38,0.81,10.8,0.81,10.8
					c2.97,0.27,10.97-6.76,15.39-10.53l10.93-10.19c0.23,7.93,1.14,19.8,3.08,20.84c0.28,0.15,0.95,0.05,1.75-0.2
					C138.96,473.06,143.35,469.29,143.43,468.54z"/>
				<path class="st0" d="M256.4,499.47h-1.14v-4.02h-2.25v-0.87h5.64v0.87h-2.26V499.47z"/>
				<path class="st0" d="M260.04,494.58h0.92l2.3,2.96l2.25-2.96h0.91v4.89h-1.05v-3.02c0-0.09,0.01-0.27,0.04-0.52
					c-0.1,0.22-0.2,0.4-0.28,0.51l-1.84,2.44h-0.23l-1.84-2.45c-0.11-0.15-0.22-0.31-0.29-0.5c0.02,0.2,0.03,0.36,0.03,0.52v3.02
					h-0.92V494.58z"/>
			</g>
		</g>
	</g>
</g>
<g>
	<g>
		<g>
			<g>
				<g>
					<g>
						<g>
							<g>
								<path class="st0" d="M89.33,143.04h4.25l10.59,12.85l10.55-12.85h4.25v21.65h-4.91v-14.89l-9.68,12.28h-1.02l-9.78-11.93
									v14.53h-4.25V143.04z"/>
								<path class="st0" d="M136.42,160.65h15.04v-17.61h5.33v16.53c0,4.04-1.38,5.11-5.68,5.11h-14.33c-4.3,0-5.63-1.07-5.63-5.11
									v-16.53h5.28V160.65z"/>
								<path class="st0" d="M186.22,146.78c1.59,0,2.41,0.31,2.41,1.74v2.51c0,1.43-0.82,1.74-2.41,1.74H174.2v-5.99H186.22z
									 M168.98,164.69h5.22v-8.19h4.96l9.06,8.19h7.57l-10.29-8.19h2.97c3.48,0,5.07-1.18,5.07-4.15v-5.12
									c0-3.02-1.59-4.2-5.07-4.2h-19.5V164.69z"/>
								<path class="st0" d="M204.81,143.04h23.23v3.84h-17.91v4.71h10.44v3.74h-10.44v5.32h18.18v4.04h-23.5V143.04z"/>
								<path class="st0" d="M246.98,153.58l-10.9-10.55h7.06l7.27,7.01l6.86-7.01h6.09l-9.88,9.93l12.18,11.72h-7.21l-8.29-8.08
									l-7.63,8.08h-6.25L246.98,153.58z"/>
							</g>
						</g>
					</g>
				</g>
				<path class="st1" d="M138.69,111.77c0.11-0.99-2.72-7.58-3.2-8.1c-0.47-0.51-2.22-0.61-2.86-1.41c-0.27-3.15-0.4-6.02-0.43-8.81
					c-0.14-12.73-1.01-29.38-1.7-35.61c-0.05-0.42-0.37-1.36-0.75-1.41c-0.38-0.05-0.85,0.84-1.45,1.73
					c-1.26,1.86-32.18,42.76-33.8,44.55c0.65-2.24,5.24-17.73,5.77-19.16c1.22-3.28,5.48-16.43,3.41-22.73
					C66.2,94.01,12.34,170.95,9.29,260.43c2.52-1.58,4.86-5.27,5.39-17.9C17.5,175.12,63.8,99.36,99.25,71.81
					c0.31,4.43-5.65,21-8.63,33.51c-1.25,5.26,0.98,12.96,0.98,12.96c3.56,0.32,13.16-8.12,18.47-12.64l13.12-12.23
					c0.27,9.51,1.37,23.76,3.69,25.01c0.33,0.18,1.14,0.05,2.1-0.24C133.32,117.19,138.59,112.67,138.69,111.77z"/>
				<path class="st0" d="M274.29,148.9h-1.37v-4.82h-2.7v-1.05h6.77v1.05h-2.71V148.9z"/>
				<path class="st0" d="M278.65,143.03h1.1l2.76,3.55l2.71-3.55h1.09v5.87h-1.26v-3.63c0-0.11,0.01-0.32,0.05-0.63
					c-0.13,0.26-0.24,0.48-0.34,0.61l-2.21,2.93h-0.27l-2.21-2.95c-0.14-0.18-0.26-0.38-0.35-0.6c0.02,0.24,0.03,0.43,0.03,0.63
					v3.63h-1.1V143.03z"/>
			</g>
		</g>
	</g>
</g>
<g>
	<g>
		<g>
			<g>
				<g>
					<g>
						<g>
							<g>
								<path class="st0" d="M-751.6,413.93h4.07l10.15,12.3l10.1-12.3h4.07v20.73h-4.7V420.4l-9.27,11.76h-0.98l-9.36-11.42v13.92
									h-4.07V413.93z"/>
								<path class="st0" d="M-706.51,430.79h14.41v-16.86h5.1v15.83c0,3.87-1.32,4.9-5.44,4.9h-13.72c-4.12,0-5.39-1.03-5.39-4.9
									v-15.83h5.05V430.79z"/>
								<path class="st0" d="M-658.82,417.51c1.52,0,2.31,0.29,2.31,1.67v2.4c0,1.37-0.79,1.66-2.31,1.66h-11.52v-5.73H-658.82z
									 M-675.33,434.66h5v-7.84h4.75l8.68,7.84h7.25l-9.85-7.84h2.84c3.33,0,4.85-1.13,4.85-3.97v-4.9c0-2.89-1.52-4.02-4.85-4.02
									h-18.67V434.66z"/>
								<path class="st0" d="M-641.02,413.93h22.25v3.68h-17.15v4.51h10v3.58h-10v5.1h17.4v3.87h-22.5V413.93z"/>
								<path class="st0" d="M-600.64,424.03l-10.44-10.1h6.77l6.96,6.71l6.56-6.71h5.83l-9.46,9.51l11.66,11.22h-6.91l-7.94-7.74
									l-7.3,7.74h-5.98L-600.64,424.03z"/>
							</g>
						</g>
					</g>
				</g>
				<path class="st1" d="M-704.34,383.99c0.1-0.95-2.6-7.26-3.06-7.75c-0.45-0.49-2.12-0.58-2.74-1.35
					c-0.26-3.02-0.38-5.77-0.41-8.43c-0.13-12.19-0.97-28.13-1.62-34.1c-0.05-0.4-0.35-1.3-0.72-1.35
					c-0.36-0.05-0.81,0.81-1.39,1.66c-1.21,1.78-30.82,40.95-32.37,42.66c0.62-2.15,5.02-16.98,5.52-18.34
					c1.17-3.14,5.24-15.73,3.27-21.77c-35.89,31.77-87.47,105.44-90.39,191.13c2.41-1.51,4.65-5.04,5.16-17.14
					c2.7-64.55,47.04-137.1,80.98-163.49c0.3,4.24-5.41,20.11-8.27,32.09c-1.2,5.04,0.93,12.41,0.93,12.41
					c3.41,0.31,12.61-7.77,17.69-12.1l12.56-11.72c0.26,9.11,1.31,22.75,3.54,23.95c0.32,0.17,1.09,0.05,2.01-0.23
					C-709.48,389.18-704.43,384.85-704.34,383.99z"/>
				<path class="st0" d="M-574.49,419.54h-1.31v-4.62h-2.58v-1h6.48v1h-2.59V419.54z"/>
				<path class="st0" d="M-570.31,413.92h1.06l2.65,3.4l2.59-3.4h1.05v5.62h-1.21v-3.47c0-0.11,0.01-0.3,0.04-0.6
					c-0.12,0.25-0.23,0.46-0.33,0.59l-2.11,2.81h-0.26l-2.11-2.82c-0.13-0.17-0.25-0.36-0.34-0.58c0.02,0.23,0.03,0.41,0.03,0.6
					v3.47h-1.06V413.92z"/>
			</g>
		</g>
	</g>
</g>
</svg>
