<?xml version="1.0" encoding="UTF-8" standalone="no"?>
<!-- Generator: Adobe Illustrator 15.1.0, SVG Export Plug-In . SVG Version: 6.00 Build 0)  -->

<svg
   xmlns:dc="http://purl.org/dc/elements/1.1/"
   xmlns:cc="http://creativecommons.org/ns#"
   xmlns:rdf="http://www.w3.org/1999/02/22-rdf-syntax-ns#"
   xmlns:svg="http://www.w3.org/2000/svg"
   xmlns="http://www.w3.org/2000/svg"
   xmlns:xlink="http://www.w3.org/1999/xlink"
   xmlns:sodipodi="http://sodipodi.sourceforge.net/DTD/sodipodi-0.dtd"
   xmlns:inkscape="http://www.inkscape.org/namespaces/inkscape"
   version="1.1"
   id="Layer_1"
   x="0px"
   y="0px"
   width="185px"
   height="188px"
   viewBox="0 0 185 188"
   enable-background="new 0 0 185 188"
   xml:space="preserve"
   sodipodi:docname="logos.svg"
   inkscape:version="0.92.4 (5da689c313, 2019-01-14)"><metadata
   id="metadata4164"><rdf:RDF><cc:Work
       rdf:about=""><dc:format>image/svg+xml</dc:format><dc:type
         rdf:resource="http://purl.org/dc/dcmitype/StillImage" /></cc:Work></rdf:RDF></metadata><defs
   id="defs4162"><linearGradient
     id="Degrade_sans_nom_15"
     x1="69.61"
     y1="407.44"
     x2="1018.84"
     y2="955.48"
     gradientUnits="userSpaceOnUse"><stop
       offset="0"
       stop-color="#97cac6"
       id="stop4" /><stop
       offset="0.49"
       stop-color="#6bb7b1"
       id="stop6" /><stop
       offset="0.8"
       stop-color="#638ba1"
       id="stop8" /><stop
       offset="1"
       stop-color="#5f7398"
       id="stop10" /></linearGradient><linearGradient
     id="Degrade_sans_nom_7"
     x1="599.98"
     y1="810.79"
     x2="1046.86"
     y2="810.79"
     gradientUnits="userSpaceOnUse"><stop
       offset="0"
       stop-color="#97cac6"
       id="stop13" /><stop
       offset="0.13"
       stop-color="#6bb7b1"
       id="stop15" /><stop
       offset="0.66"
       stop-color="#638ba1"
       id="stop17" /><stop
       offset="1"
       stop-color="#5f7398"
       id="stop19" /></linearGradient><linearGradient
     id="Degrade_sans_nom_13"
     x1="907.96"
     y1="503.31"
     x2="1298.51"
     y2="728.79"
     gradientUnits="userSpaceOnUse"><stop
       offset="0"
       stop-color="#97cac6"
       id="stop22" /><stop
       offset="0.13"
       stop-color="#6bb7b1"
       id="stop24" /><stop
       offset="0.51"
       stop-color="#6bb3af"
       id="stop26" /><stop
       offset="0.8"
       stop-color="#638ba0"
       id="stop28" /><stop
       offset="1"
       stop-color="#5f7398"
       id="stop30" /></linearGradient><linearGradient
     id="Degrade_sans_nom_7-2"
     x1="1158.71"
     y1="1164.79"
     x2="1606.89"
     y2="1164.79"
     xlink:href="#Degrade_sans_nom_7" /><linearGradient
     id="Degrade_sans_nom_16"
     x1="1243.29"
     y1="696.43"
     x2="1352.8"
     y2="759.66"
     gradientUnits="userSpaceOnUse"><stop
       offset="0"
       stop-color="#97cac6"
       id="stop34" /><stop
       offset="0.08"
       stop-color="#6bb7b1"
       id="stop36" /><stop
       offset="0.64"
       stop-color="#638ba1"
       id="stop38" /><stop
       offset="1"
       stop-color="#5f7398"
       id="stop40" /></linearGradient><linearGradient
     id="Degrade_sans_nom_11"
     x1="1496.49"
     y1="907.3"
     x2="1830.54"
     y2="907.3"
     gradientUnits="userSpaceOnUse"><stop
       offset="0"
       stop-color="#97cac6"
       id="stop43" /><stop
       offset="0.53"
       stop-color="#6bb7b1"
       id="stop45" /><stop
       offset="0.82"
       stop-color="#638ba1"
       id="stop47" /><stop
       offset="1"
       stop-color="#5f7398"
       id="stop49" /></linearGradient><linearGradient
     id="Degrade_sans_nom_11-2"
     x1="1326.68"
     y1="422.15"
     x2="1608.2"
     y2="584.69"
     xlink:href="#Degrade_sans_nom_11" /><style
     id="style761">.cls-1{fill:#fbd730;}.cls-2{fill:url(#Degrade_sans_nom_15);}.cls-3{fill:url(#Degrade_sans_nom_7);}.cls-4{fill:url(#Degrade_sans_nom_13);}.cls-5{fill:url(#Degrade_sans_nom_7-2);}.cls-6{fill:url(#Degrade_sans_nom_16);}.cls-7{fill:#eead89;}.cls-8{fill:url(#Degrade_sans_nom_11);}.cls-9{fill:url(#Degrade_sans_nom_11-2);}.cls-10{fill:#89c5bf;}</style><symbol
     viewBox="0 0 2052.42 1403.76"
     data-name="logolisse1"
     id="logolisse1"><g
       data-name="&lt;Groupe&gt;"
       id="_Groupe_"><g
         data-name="&lt;Groupe&gt;"
         id="_Groupe_2"><path
           d="M1670.07,557.28"
           class="cls-1"
           data-name="&lt;Trace&gt;"
           id="_Trace_" /><polygon
           points="1272.99 519.39 1381.47 584.2 1379.21 713.15 1270.92 647.8 1272.99 519.39"
           class="cls-1"
           data-name="&lt;Trace&gt;"
           id="_Trace_2" /><polygon
           points="265.28 68.52 265.16 970.71 823.17 1294.4 823.17 1165.2 376.96 906.1 377.09 262.29 712.58 456.01 712.58 326.81 265.28 68.52"
           class="cls-2"
           data-name="&lt;Trace&gt;"
           id="_Trace_3" /><polygon
           points="599.98 650.14 599.98 779.34 934.98 971.44 1046.86 906.35 599.98 650.14"
           class="cls-3"
           data-name="&lt;Trace&gt;"
           id="_Trace_4" /><polygon
           points="1047.75 261.17 1159.56 325.73 1158.71 970.92 1046.86 906.35 1047.75 261.17"
           class="cls-4"
           data-name="&lt;Trace&gt;"
           id="_Trace_5" /><polygon
           points="1158.71 970.92 1158.71 1099.87 1606.89 1358.66 1606.71 1230.28 1158.71 970.92"
           class="cls-5"
           data-name="&lt;Trace&gt;"
           id="_Trace_6" /><polygon
           points="1271.36 647.8 1271.36 777.48 1379.65 713.15 1271.36 647.8"
           class="cls-6"
           data-name="&lt;Trace&gt;"
           id="_Trace_7" /><polygon
           points="823.17 1165.2 1158.71 970.92 1158.71 1099.87 823.17 1294.4 823.17 1165.2"
           class="cls-7"
           data-name="&lt;Trace&gt;"
           id="_Trace_8" /><polygon
           points="377.09 262.29 487.94 326.3 487.94 841.71 376.96 906.1 377.09 262.29"
           class="cls-7"
           data-name="&lt;Trace&gt;"
           id="_Trace_9" /><polygon
           points="1606.71 1230.28 2052.42 970.92 2052.42 1100.17 1606.89 1358.66 1606.71 1230.28"
           class="cls-7"
           data-name="&lt;Trace&gt;"
           id="_Trace_10" /><polygon
           points="1496.49 778.17 1830.54 971.44 1718.73 1036.42 1496.49 907.31 1496.49 778.17"
           class="cls-8"
           data-name="&lt;Trace&gt;"
           id="_Trace_11" /><polygon
           points="712.58 326.81 822.49 262.29 822.49 391.43 712.58 456.01 712.58 326.81"
           class="cls-7"
           data-name="&lt;Trace&gt;"
           id="_Trace_12" /><path
           d="M1271.41,906.1"
           class="cls-7"
           data-name="&lt;Trace&gt;"
           id="_Trace_13" /><polygon
           points="1271.41 906.1 1496.49 778.17 1496.49 907.31 1383.95 971.44 1271.41 906.1"
           class="cls-7"
           data-name="&lt;Trace&gt;"
           id="_Trace_14" /><polygon
           points="824.03 647.8 1046.62 519.39 1047.75 650.14 935.89 712.64 824.03 647.8"
           class="cls-7"
           data-name="&lt;Trace&gt;"
           id="_Trace_15" /><polygon
           points="376.42 3.15 265.28 68.52 712.58 326.81 822.49 262.29 376.42 3.15"
           class="cls-1"
           data-name="&lt;Trace&gt;"
           id="_Trace_16" /><polygon
           points="487.94 841.71 376.96 906.1 823.17 1165.2 1158.71 970.92 1046.86 906.35 822.49 1034.89 487.94 841.71"
           class="cls-1"
           data-name="&lt;Trace&gt;"
           id="_Trace_17" /><polygon
           points="599.98 650.14 1046.86 391.91 1046.62 519.39 824.03 647.8 1046.24 777.48 1046.86 906.35 599.98 650.14"
           class="cls-1"
           data-name="&lt;Trace&gt;"
           id="_Trace_18" /><polygon
           points="1271.41 906.1 1271.36 777.48 1379.65 713.15 1496.49 778.17 1271.41 906.1"
           class="cls-1"
           data-name="&lt;Trace&gt;"
           id="_Trace_19" /><polygon
           points="1158.71 970.92 1271.41 906.1 1605.12 1100.19 1830.54 971.44 1496.49 778.17 1605.12 712.64 2052.42 970.92 1606.71 1230.28 1158.71 970.92"
           class="cls-1"
           data-name="&lt;Trace&gt;"
           id="_Trace_20" /><polygon
           points="1047.75 261.17 1496.49 0 1605.12 65.98 1159.56 325.73 1047.75 261.17"
           class="cls-1"
           data-name="&lt;Trace&gt;"
           id="_Trace_21" /><polygon
           points="1381.47 584.2 1265.93 513.95 1271.36 647.8 1379.65 713.15 1381.47 584.2"
           class="cls-1"
           data-name="&lt;Trace&gt;"
           id="_Trace_22" /><polygon
           points="1496.49 778.17 1605.12 712.64 1605.12 65.98 1159.56 325.73 1158.71 970.92 1271.41 906.1 1269.07 389.94 1497.94 260.61 1496.49 778.17"
           class="cls-7"
           data-name="&lt;Trace&gt;"
           id="_Trace_23" /><polygon
           points="1497.94 260.61 1496.49 778.17 1379.65 713.15 1382.36 325.7 1497.94 260.61"
           class="cls-9"
           data-name="&lt;Trace&gt;"
           id="_Trace_24" /></g><g
         data-name="&lt;Groupe&gt;"
         id="_Groupe_3"><polygon
           points="126.69 1169.06 101.82 1183.77 0 1125.08 177.37 1022.92 278.72 1081.44 253.39 1096.1 177.37 1052.35 50.45 1125.63 126.69 1169.06"
           class="cls-10"
           data-name="&lt;Trace&gt;"
           id="_Trace_25" /><g
           data-name="&lt;Groupe&gt;"
           id="_Groupe_4"><polygon
             points="126.38 1198.56 303.7 1096.17 430.44 1169.36 405.1 1183.71 303.42 1125.28 151.71 1213.08 126.38 1198.56"
             class="cls-10"
             data-name="&lt;Trace&gt;"
             id="_Trace_26" /><polygon
             points="329.08 1198.65 252.7 1154.63 227.72 1169.09 329.08 1227.91 405.1 1183.71 379.76 1169.14 329.08 1198.65"
             class="cls-10"
             data-name="&lt;Trace&gt;"
             id="_Trace_27" /></g><g
           data-name="&lt;Groupe&gt;"
           id="_Groupe_5"><polygon
             points="278.73 1286.58 456.05 1184.19 582.79 1257.37 557.46 1271.72 455.77 1213.29 304.07 1301.1 278.73 1286.58"
             class="cls-10"
             data-name="&lt;Trace&gt;"
             id="_Trace_28" /><polygon
             points="481.44 1286.66 405.06 1242.64 380.07 1257.1 481.44 1315.92 557.46 1271.72 532.11 1257.16 481.44 1286.66"
             class="cls-10"
             data-name="&lt;Trace&gt;"
             id="_Trace_29" /></g><g
           data-name="&lt;Groupe&gt;"
           id="_Groupe_6"><polygon
             points="431.26 1374.41 608.58 1272.02 735.32 1345.21 709.99 1359.56 608.3 1301.13 456.6 1388.93 431.26 1374.41"
             class="cls-10"
             data-name="&lt;Trace&gt;"
             id="_Trace_30" /><polygon
             points="633.97 1374.5 557.59 1330.48 532.6 1344.94 633.97 1403.76 709.99 1359.56 684.64 1344.99 633.97 1374.5"
             class="cls-10"
             data-name="&lt;Trace&gt;"
             id="_Trace_31" /></g></g></g></symbol></defs><sodipodi:namedview
   pagecolor="#ffffff"
   bordercolor="#666666"
   borderopacity="1"
   objecttolerance="10"
   gridtolerance="10"
   guidetolerance="10"
   inkscape:pageopacity="0"
   inkscape:pageshadow="2"
   inkscape:window-width="1600"
   inkscape:window-height="1137"
   id="namedview4160"
   showgrid="false"
   inkscape:zoom="2.4946809"
   inkscape:cx="162.10037"
   inkscape:cy="41.46844"
   inkscape:window-x="-8"
   inkscape:window-y="-8"
   inkscape:window-maximized="1"
   inkscape:current-layer="Layer_1" />
<g
   id="g4121">
	<path
   d="M100.204,37.618c-0.437,0.207-1.287,0.368-2.322,0.368c-3.978,0-5.863-3.243-5.863-7.658c0-5.84,3.242-8.117,6.254-8.117   c1.059,0,1.794,0.207,2.093,0.414l-0.506,2.529c-0.345-0.161-0.735-0.299-1.402-0.299c-1.702,0-3.242,1.472-3.242,5.312   c0,3.702,1.402,5.151,3.242,5.151c0.506,0,1.08-0.115,1.448-0.23L100.204,37.618z"
   id="path4105" />
	<path
   d="M101.862,22.58c0.851-0.184,2-0.299,3.15-0.299c1.793,0,3.219,0.253,4.208,1.195c0.92,0.805,1.333,2.093,1.333,3.403   c0,1.679-0.506,2.875-1.311,3.725c-0.966,1.035-2.506,1.495-3.771,1.495c-0.207,0-0.392,0-0.599-0.023v5.772h-3.012V22.58z    M104.874,29.639c0.161,0.023,0.322,0.023,0.506,0.023c1.518,0,2.185-1.081,2.185-2.53c0-1.356-0.552-2.415-1.954-2.415   c-0.276,0-0.552,0.046-0.736,0.115V29.639z"
   id="path4107" />
	<path
   d="M112.373,22.58c0.851-0.184,2-0.299,3.15-0.299c1.793,0,3.219,0.253,4.208,1.195c0.92,0.805,1.333,2.093,1.333,3.403   c0,1.679-0.506,2.875-1.311,3.725c-0.966,1.035-2.506,1.495-3.771,1.495c-0.207,0-0.392,0-0.599-0.023v5.772h-3.012V22.58z    M115.385,29.639c0.161,0.023,0.322,0.023,0.506,0.023c1.518,0,2.185-1.081,2.185-2.53c0-1.356-0.552-2.415-1.954-2.415   c-0.276,0-0.552,0.046-0.736,0.115V29.639z"
   id="path4109" />
	<path
   d="M122.884,22.58c0.851-0.184,2-0.299,3.15-0.299c1.793,0,3.219,0.253,4.208,1.195c0.92,0.805,1.333,2.093,1.333,3.403   c0,1.679-0.506,2.875-1.311,3.725c-0.966,1.035-2.506,1.495-3.771,1.495c-0.207,0-0.392,0-0.599-0.023v5.772h-3.012V22.58z    M125.896,29.639c0.161,0.023,0.322,0.023,0.506,0.023c1.518,0,2.185-1.081,2.185-2.53c0-1.356-0.552-2.415-1.954-2.415   c-0.276,0-0.552,0.046-0.736,0.115V29.639z"
   id="path4111" />
	<path
   d="M136.292,37.848v-2.023l1.472-1.909c1.932-2.46,3.518-4.507,3.518-6.646c0-1.219-0.667-2.046-1.908-2.046   c-0.942,0-1.702,0.414-2.23,0.759l-0.552-2.323c0.689-0.46,1.978-0.943,3.334-0.943c3.266,0,4.323,2.185,4.323,4.323   c0,2.805-1.748,5.059-3.473,7.06l-0.896,1.058v0.046h4.576v2.645H136.292z"
   id="path4113" />
	<path
   d="M154.781,30.306c0,5.358-1.954,7.727-4.369,7.727c-3.265,0-4.368-3.749-4.368-7.588c0-4.3,1.379-7.727,4.461-7.727   C154,22.717,154.781,26.742,154.781,30.306z M149.079,30.375c-0.046,3.495,0.391,5.082,1.402,5.082c0.92,0,1.265-1.655,1.265-5.082   c0-3.22-0.299-5.082-1.265-5.082C149.539,25.293,149.056,26.902,149.079,30.375z"
   id="path4115" />
	<path
   d="M155.888,37.848v-2.023l1.472-1.909c1.932-2.46,3.518-4.507,3.518-6.646c0-1.219-0.667-2.046-1.908-2.046   c-0.942,0-1.702,0.414-2.23,0.759l-0.552-2.323c0.689-0.46,1.978-0.943,3.334-0.943c3.266,0,4.323,2.185,4.323,4.323   c0,2.805-1.748,5.059-3.473,7.06l-0.896,1.058v0.046h4.576v2.645H155.888z"
   id="path4117" />
	<path
   d="M174.377,30.306c0,5.358-1.954,7.727-4.369,7.727c-3.265,0-4.368-3.749-4.368-7.588c0-4.3,1.379-7.727,4.461-7.727   C173.596,22.717,174.377,26.742,174.377,30.306z M168.675,30.375c-0.046,3.495,0.391,5.082,1.402,5.082   c0.92,0,1.265-1.655,1.265-5.082c0-3.22-0.299-5.082-1.265-5.082C169.135,25.293,168.651,26.902,168.675,30.375z"
   id="path4119" />
</g>
<g
   id="g4139">
	<path
   fill="#999999"
   d="M100.204,99.618c-0.437,0.207-1.287,0.368-2.322,0.368c-3.978,0-5.863-3.242-5.863-7.658   c0-5.84,3.242-8.117,6.254-8.117c1.059,0,1.794,0.207,2.093,0.414l-0.506,2.529c-0.345-0.161-0.735-0.299-1.402-0.299   c-1.702,0-3.242,1.472-3.242,5.312c0,3.702,1.402,5.15,3.242,5.15c0.506,0,1.08-0.115,1.448-0.229L100.204,99.618z"
   id="path4123" />
	<path
   fill="#999999"
   d="M101.862,84.58c0.851-0.184,2-0.299,3.15-0.299c1.793,0,3.219,0.253,4.208,1.195   c0.92,0.805,1.333,2.093,1.333,3.403c0,1.679-0.506,2.875-1.311,3.725c-0.966,1.035-2.506,1.495-3.771,1.495   c-0.207,0-0.392,0-0.599-0.023v5.771h-3.012V84.58z M104.874,91.639c0.161,0.023,0.322,0.023,0.506,0.023   c1.518,0,2.185-1.081,2.185-2.53c0-1.356-0.552-2.415-1.954-2.415c-0.276,0-0.552,0.046-0.736,0.115V91.639z"
   id="path4125" />
	<path
   fill="#999999"
   d="M112.373,84.58c0.851-0.184,2-0.299,3.15-0.299c1.793,0,3.219,0.253,4.208,1.195   c0.92,0.805,1.333,2.093,1.333,3.403c0,1.679-0.506,2.875-1.311,3.725c-0.966,1.035-2.506,1.495-3.771,1.495   c-0.207,0-0.392,0-0.599-0.023v5.771h-3.012V84.58z M115.385,91.639c0.161,0.023,0.322,0.023,0.506,0.023   c1.518,0,2.185-1.081,2.185-2.53c0-1.356-0.552-2.415-1.954-2.415c-0.276,0-0.552,0.046-0.736,0.115V91.639z"
   id="path4127" />
	<path
   fill="#999999"
   d="M122.884,84.58c0.851-0.184,2-0.299,3.15-0.299c1.793,0,3.219,0.253,4.208,1.195   c0.92,0.805,1.333,2.093,1.333,3.403c0,1.679-0.506,2.875-1.311,3.725c-0.966,1.035-2.506,1.495-3.771,1.495   c-0.207,0-0.392,0-0.599-0.023v5.771h-3.012V84.58z M125.896,91.639c0.161,0.023,0.322,0.023,0.506,0.023   c1.518,0,2.185-1.081,2.185-2.53c0-1.356-0.552-2.415-1.954-2.415c-0.276,0-0.552,0.046-0.736,0.115V91.639z"
   id="path4129" />
	<path
   fill="#999999"
   d="M136.292,99.848v-2.023l1.472-1.908c1.932-2.46,3.518-4.507,3.518-6.646c0-1.219-0.667-2.046-1.908-2.046   c-0.942,0-1.702,0.414-2.23,0.759l-0.552-2.323c0.689-0.46,1.978-0.943,3.334-0.943c3.266,0,4.323,2.185,4.323,4.323   c0,2.805-1.748,5.059-3.473,7.059l-0.896,1.059v0.045h4.576v2.645H136.292z"
   id="path4131" />
	<path
   fill="#999999"
   d="M154.781,92.306c0,5.358-1.954,7.727-4.369,7.727c-3.265,0-4.368-3.749-4.368-7.588   c0-4.3,1.379-7.727,4.461-7.727C154,84.717,154.781,88.742,154.781,92.306z M149.079,92.375c-0.046,3.495,0.391,5.082,1.402,5.082   c0.92,0,1.265-1.656,1.265-5.082c0-3.22-0.299-5.082-1.265-5.082C149.539,87.293,149.056,88.902,149.079,92.375z"
   id="path4133" />
	<path
   fill="#999999"
   d="M155.888,99.848v-2.023l1.472-1.908c1.932-2.46,3.518-4.507,3.518-6.646c0-1.219-0.667-2.046-1.908-2.046   c-0.942,0-1.702,0.414-2.23,0.759l-0.552-2.323c0.689-0.46,1.978-0.943,3.334-0.943c3.266,0,4.323,2.185,4.323,4.323   c0,2.805-1.748,5.059-3.473,7.059l-0.896,1.059v0.045h4.576v2.645H155.888z"
   id="path4135" />
	<path
   fill="#999999"
   d="M174.377,92.306c0,5.358-1.954,7.727-4.369,7.727c-3.265,0-4.368-3.749-4.368-7.588   c0-4.3,1.379-7.727,4.461-7.727C173.596,84.717,174.377,88.742,174.377,92.306z M168.675,92.375   c-0.046,3.495,0.391,5.082,1.402,5.082c0.92,0,1.265-1.656,1.265-5.082c0-3.22-0.299-5.082-1.265-5.082   C169.135,87.293,168.651,88.902,168.675,92.375z"
   id="path4137" />
</g>
<g
   id="g4157">
	<path
   fill="#FFFFFF"
   d="M100.204,162.935c-0.437,0.207-1.287,0.368-2.322,0.368c-3.978,0-5.863-3.242-5.863-7.658   c0-5.84,3.242-8.117,6.254-8.117c1.059,0,1.794,0.207,2.093,0.414l-0.506,2.529c-0.345-0.16-0.735-0.299-1.402-0.299   c-1.702,0-3.242,1.473-3.242,5.313c0,3.702,1.402,5.15,3.242,5.15c0.506,0,1.08-0.115,1.448-0.229L100.204,162.935z"
   id="path4141" />
	<path
   fill="#FFFFFF"
   d="M101.862,147.896c0.851-0.185,2-0.299,3.15-0.299c1.793,0,3.219,0.252,4.208,1.195   c0.92,0.805,1.333,2.092,1.333,3.402c0,1.68-0.506,2.875-1.311,3.726c-0.966,1.035-2.506,1.495-3.771,1.495   c-0.207,0-0.392,0-0.599-0.023v5.771h-3.012V147.896z M104.874,154.955c0.161,0.023,0.322,0.023,0.506,0.023   c1.518,0,2.185-1.081,2.185-2.529c0-1.357-0.552-2.415-1.954-2.415c-0.276,0-0.552,0.046-0.736,0.115V154.955z"
   id="path4143" />
	<path
   fill="#FFFFFF"
   d="M112.373,147.896c0.851-0.185,2-0.299,3.15-0.299c1.793,0,3.219,0.252,4.208,1.195   c0.92,0.805,1.333,2.092,1.333,3.402c0,1.68-0.506,2.875-1.311,3.726c-0.966,1.035-2.506,1.495-3.771,1.495   c-0.207,0-0.392,0-0.599-0.023v5.771h-3.012V147.896z M115.385,154.955c0.161,0.023,0.322,0.023,0.506,0.023   c1.518,0,2.185-1.081,2.185-2.529c0-1.357-0.552-2.415-1.954-2.415c-0.276,0-0.552,0.046-0.736,0.115V154.955z"
   id="path4145" />
	<path
   fill="#FFFFFF"
   d="M122.884,147.896c0.851-0.185,2-0.299,3.15-0.299c1.793,0,3.219,0.252,4.208,1.195   c0.92,0.805,1.333,2.092,1.333,3.402c0,1.68-0.506,2.875-1.311,3.726c-0.966,1.035-2.506,1.495-3.771,1.495   c-0.207,0-0.392,0-0.599-0.023v5.771h-3.012V147.896z M125.896,154.955c0.161,0.023,0.322,0.023,0.506,0.023   c1.518,0,2.185-1.081,2.185-2.529c0-1.357-0.552-2.415-1.954-2.415c-0.276,0-0.552,0.046-0.736,0.115V154.955z"
   id="path4147" />
	<path
   fill="#FFFFFF"
   d="M136.292,163.164v-2.023l1.472-1.908c1.932-2.461,3.518-4.507,3.518-6.646c0-1.219-0.667-2.046-1.908-2.046   c-0.942,0-1.702,0.413-2.23,0.758l-0.552-2.322c0.689-0.46,1.978-0.943,3.334-0.943c3.266,0,4.323,2.186,4.323,4.324   c0,2.805-1.748,5.059-3.473,7.059l-0.896,1.059v0.045h4.576v2.645H136.292z"
   id="path4149" />
	<path
   fill="#FFFFFF"
   d="M154.781,155.622c0,5.358-1.954,7.727-4.369,7.727c-3.265,0-4.368-3.749-4.368-7.589   c0-4.3,1.379-7.727,4.461-7.727C154,148.033,154.781,152.059,154.781,155.622z M149.079,155.691   c-0.046,3.495,0.391,5.082,1.402,5.082c0.92,0,1.265-1.656,1.265-5.082c0-3.22-0.299-5.082-1.265-5.082   C149.539,150.609,149.056,152.219,149.079,155.691z"
   id="path4151" />
	<path
   fill="#FFFFFF"
   d="M155.888,163.164v-2.023l1.472-1.908c1.932-2.461,3.518-4.507,3.518-6.646c0-1.219-0.667-2.046-1.908-2.046   c-0.942,0-1.702,0.413-2.23,0.758l-0.552-2.322c0.689-0.46,1.978-0.943,3.334-0.943c3.266,0,4.323,2.186,4.323,4.324   c0,2.805-1.748,5.059-3.473,7.059l-0.896,1.059v0.045h4.576v2.645H155.888z"
   id="path4153" />
	<path
   fill="#FFFFFF"
   d="M174.377,155.622c0,5.358-1.954,7.727-4.369,7.727c-3.265,0-4.368-3.749-4.368-7.589   c0-4.3,1.379-7.727,4.461-7.727C173.596,148.033,174.377,152.059,174.377,155.622z M168.675,155.691   c-0.046,3.495,0.391,5.082,1.402,5.082c0.92,0,1.265-1.656,1.265-5.082c0-3.22-0.299-5.082-1.265-5.082   C169.135,150.609,168.651,152.219,168.675,155.691z"
   id="path4155" />
</g>
<use
   xlink:href="#logolisse1"
   transform="matrix(0.04172559,0,0,0.04172559,1,1.009765)"
   height="1403.76"
   width="2052.4199"
   data-name="logolisse1"
   id="logolisse1-3-5"
   x="0"
   y="0" /><use
   xlink:href="#logolisse1"
   transform="matrix(0.04172559,0,0,0.04172559,1,129.05053)"
   height="1403.76"
   width="2052.4199"
   data-name="logolisse1"
   id="logolisse1-3-5-3"
   x="0"
   y="0" /><use
   xlink:href="#logolisse1"
   transform="matrix(0.04172559,0,0,0.04172559,1,62.922598)"
   height="1403.76"
   width="2052.4199"
   data-name="logolisse1"
   id="logolisse1-3-5-31"
   x="0"
   y="0" /></svg>